<svg width="62" height="62" viewBox="0 0 62 62" fill="none" xmlns="http://www.w3.org/2000/svg">
<path d="M11.7774 18.0833L23.9217 5.93651C24.4332 5.42501 25.1074 5.16667 25.7817 5.16667C27.3652 5.16667 28.4167 6.47126 28.4167 7.82492C28.4167 8.47076 28.179 9.12692 27.6442 9.66167L19.2226 18.0833H11.7774V18.0833ZM42.7774 18.0833H50.2252L38.0783 5.93651C37.5668 5.42501 36.8926 5.16667 36.2183 5.16667C34.6348 5.16667 33.5833 6.47126 33.5833 7.82492C33.5833 8.47076 33.821 9.12692 34.3557 9.66167L42.7774 18.0833V18.0833ZM52.3435 28.4167L52.3022 28.5226L43.0073 51.6667H18.9927L9.70042 28.5174L9.65908 28.4167H52.3435V28.4167ZM62 23.25H0V28.4167H1.66108C3.04317 28.4167 4.29867 29.202 4.90575 30.442L15.5 56.8333H46.5L57.0968 30.4472C57.7013 29.2046 58.962 28.4167 60.3415 28.4167H62V23.25ZM25.8333 36.1667C25.8333 34.7407 24.6786 33.5833 23.25 33.5833C21.8214 33.5833 20.6667 34.7407 20.6667 36.1667V43.9167C20.6667 45.3427 21.8214 46.5 23.25 46.5C24.6786 46.5 25.8333 45.3427 25.8333 43.9167V36.1667ZM33.5833 36.1667C33.5833 34.7407 32.4286 33.5833 31 33.5833C29.5714 33.5833 28.4167 34.7407 28.4167 36.1667V43.9167C28.4167 45.3427 29.5714 46.5 31 46.5C32.4286 46.5 33.5833 45.3427 33.5833 43.9167V36.1667ZM41.3333 36.1667C41.3333 34.7407 40.1786 33.5833 38.75 33.5833C37.3214 33.5833 36.1667 34.7407 36.1667 36.1667V43.9167C36.1667 45.3427 37.3214 46.5 38.75 46.5C40.1786 46.5 41.3333 45.3427 41.3333 43.9167V36.1667Z" fill="white"/>
</svg>
