<svg width="737" height="167" viewBox="0 0 737 167" fill="none" xmlns="http://www.w3.org/2000/svg">
<path d="M136 79.668C136 83.0627 135.772 86.0267 135.316 88.56C134.911 91.0427 134.455 93.1707 133.948 94.944C133.492 96.6667 133.036 98.06 132.58 99.124C132.175 100.137 131.972 100.897 131.972 101.404C131.972 101.708 132.073 101.987 132.276 102.24C132.529 102.493 132.808 102.721 133.112 102.924C133.467 103.127 133.821 103.279 134.176 103.38C134.581 103.481 134.911 103.532 135.164 103.532C135.772 103.532 136.355 103.253 136.912 102.696C137.469 102.139 137.875 101.277 138.128 100.112C138.483 98.288 138.761 96.236 138.964 93.956C139.217 91.676 139.42 89.4213 139.572 87.192C139.724 84.912 139.851 82.8093 139.952 80.884C140.104 78.9587 140.256 77.4387 140.408 76.324C141.32 77.1853 142.232 78.0213 143.144 78.832C144.056 79.592 145.069 80.4027 146.184 81.264C147.349 82.1253 148.692 83.0627 150.212 84.076C151.732 85.0893 153.581 86.28 155.76 87.648C157.939 88.9653 160.523 90.5107 163.512 92.284C166.501 94.0067 170.023 96.0333 174.076 98.364C174.836 98.82 175.419 99.3773 175.824 100.036C176.28 100.695 176.66 101.328 176.964 101.936C177.268 102.493 177.521 102.975 177.724 103.38C177.977 103.836 178.256 104.064 178.56 104.064C178.915 104.064 179.371 103.988 179.928 103.836C180.485 103.684 181.017 103.431 181.524 103.076C182.081 102.772 182.563 102.367 182.968 101.86C183.373 101.353 183.576 100.771 183.576 100.112C183.576 99.4027 183.525 98.668 183.424 97.908C183.373 97.148 183.272 96.2867 183.12 95.324C183.019 94.3107 182.917 93.1707 182.816 91.904C182.765 90.5867 182.74 89.0667 182.74 87.344C182.74 81.6693 182.791 77.1853 182.892 73.892C183.044 70.548 183.196 67.9893 183.348 66.216C183.551 64.392 183.703 63.1253 183.804 62.416C183.956 61.7067 184.032 61.1493 184.032 60.744C184.032 60.0853 183.753 59.68 183.196 59.528C182.639 59.3253 182.081 59.224 181.524 59.224C181.068 59.224 180.511 59.2747 179.852 59.376C179.244 59.4773 178.636 59.6293 178.028 59.832C177.471 59.984 176.989 60.212 176.584 60.516C176.179 60.82 175.976 61.2 175.976 61.656C175.976 62.0613 176.077 62.416 176.28 62.72C176.533 63.024 176.787 63.3787 177.04 63.784C177.344 64.1893 177.623 64.696 177.876 65.304C178.129 65.912 178.281 66.7227 178.332 67.736C178.433 70.624 178.535 73.4613 178.636 76.248C178.737 79.0347 178.788 82.1 178.788 85.444C178.788 86.356 178.763 87.2173 178.712 88.028C178.712 88.788 178.687 89.548 178.636 90.308C178.585 91.068 178.509 91.8787 178.408 92.74C178.357 93.6013 178.281 94.5893 178.18 95.704C174.279 93.6773 170.656 91.676 167.312 89.7C164.019 87.6733 160.751 85.4693 157.508 83.088C154.265 80.7067 150.947 78.0467 147.552 75.108C144.208 72.1693 140.535 68.7493 136.532 64.848C135.063 63.4293 133.897 62.34 133.036 61.58C132.175 60.7693 131.491 60.1867 130.984 59.832C130.528 59.4267 130.199 59.1987 129.996 59.148C129.844 59.0467 129.692 58.996 129.54 58.996C128.577 58.996 127.767 59.2747 127.108 59.832C126.449 60.3893 126.12 60.896 126.12 61.352C126.12 61.6053 126.171 61.884 126.272 62.188C126.424 62.4413 126.703 62.8467 127.108 63.404C127.513 63.9107 128.096 64.5947 128.856 65.456C129.616 66.2667 130.629 67.356 131.896 68.724C133.365 70.2947 134.404 71.916 135.012 73.588C135.671 75.2093 136 77.236 136 79.668ZM202.711 79.516C202.711 83.5187 202.711 86.9387 202.711 89.776C202.762 92.5627 202.813 94.8933 202.863 96.768C202.914 98.592 202.99 100.036 203.091 101.1C203.243 102.113 203.421 102.873 203.623 103.38C203.826 103.887 204.054 104.191 204.307 104.292C204.611 104.444 204.941 104.52 205.295 104.52C206.157 104.52 206.765 104.013 207.119 103C207.525 102.037 207.727 100.036 207.727 96.996C207.727 87.876 207.778 80.7067 207.879 75.488C208.031 70.2187 208.209 66.4693 208.411 64.24C208.462 63.3787 208.589 62.644 208.791 62.036C209.045 61.3773 209.171 60.744 209.171 60.136C209.171 59.832 208.817 59.4773 208.107 59.072C207.398 58.616 206.765 58.388 206.207 58.388C205.853 58.388 205.346 58.5907 204.687 58.996C204.079 59.3507 203.471 59.7813 202.863 60.288C202.255 60.7947 201.723 61.3267 201.267 61.884C200.811 62.4413 200.583 62.872 200.583 63.176C200.583 63.5813 200.659 64.012 200.811 64.468C201.014 64.8733 201.369 65.3547 201.875 65.912C202.179 66.2667 202.357 66.6973 202.407 67.204C202.458 67.66 202.483 68.2427 202.483 68.952C202.483 70.2693 202.509 71.688 202.559 73.208C202.661 74.728 202.711 76.8307 202.711 79.516ZM225.74 84.76C225.74 88.256 226.297 91.1947 227.412 93.576C228.577 95.9067 229.996 97.8067 231.668 99.276C233.34 100.695 235.113 101.708 236.988 102.316C238.863 102.924 240.509 103.228 241.928 103.228C242.941 103.228 244.005 103.152 245.12 103C246.235 102.899 247.299 102.747 248.312 102.544C249.325 102.341 250.263 102.113 251.124 101.86C251.985 101.556 252.669 101.252 253.176 100.948C254.037 100.492 254.823 99.96 255.532 99.352C256.292 98.6933 256.951 98.06 257.508 97.452C258.116 96.844 258.572 96.312 258.876 95.856C259.231 95.3493 259.408 94.9947 259.408 94.792C259.408 94.336 259.256 93.956 258.952 93.652C258.699 93.348 258.319 93.196 257.812 93.196C257.356 93.196 256.723 93.5253 255.912 94.184C255.101 94.792 254.113 95.5013 252.948 96.312C251.833 97.072 250.516 97.7813 248.996 98.44C247.527 99.048 245.88 99.352 244.056 99.352C242.08 99.352 240.256 98.82 238.584 97.756C236.963 96.6413 235.569 95.2733 234.404 93.652C233.239 92.0307 232.327 90.308 231.668 88.484C231.06 86.6093 230.756 84.9373 230.756 83.468C230.756 82.708 230.832 81.6693 230.984 80.352C231.187 78.984 231.516 77.5147 231.972 75.944C232.428 74.3733 233.061 72.7773 233.872 71.156C234.683 69.5347 235.721 68.0907 236.988 66.824C238.305 65.5067 239.851 64.4427 241.624 63.632C243.448 62.7707 245.576 62.34 248.008 62.34C248.819 62.34 249.503 62.5173 250.06 62.872C250.617 63.2267 251.073 63.632 251.428 64.088C251.833 64.4933 252.163 64.8733 252.416 65.228C252.72 65.5827 253.024 65.76 253.328 65.76C253.632 65.76 254.012 65.6333 254.468 65.38C254.975 65.076 255.431 64.7213 255.836 64.316C256.292 63.9107 256.672 63.5053 256.976 63.1C257.28 62.644 257.432 62.264 257.432 61.96C257.432 61.2 256.849 60.4147 255.684 59.604C254.519 58.7933 252.872 58.388 250.744 58.388C249.325 58.388 247.704 58.54 245.88 58.844C244.107 59.0973 242.283 59.604 240.408 60.364C238.533 61.0733 236.709 62.0613 234.936 63.328C233.213 64.544 231.668 66.14 230.3 68.116C228.932 70.0413 227.817 72.372 226.956 75.108C226.145 77.844 225.74 81.0613 225.74 84.76ZM290.551 78.68H280.291C279.531 78.68 278.872 78.8067 278.315 79.06C277.757 79.2627 277.276 79.5413 276.871 79.896C277.073 76.096 277.504 72.98 278.163 70.548C278.821 68.116 279.607 66.216 280.519 64.848C281.481 63.4293 282.52 62.4667 283.635 61.96C284.8 61.4533 285.991 61.2 287.207 61.2H291.691C292.653 61.2 293.135 60.6427 293.135 59.528C293.135 58.6667 292.755 58.084 291.995 57.78C291.235 57.4253 289.791 57.248 287.663 57.248C285.535 57.248 283.457 57.704 281.431 58.616C279.455 59.4773 277.707 60.972 276.187 63.1C274.667 65.1773 273.425 67.9387 272.463 71.384C271.551 74.7787 271.095 79.0093 271.095 84.076C271.095 85.4947 271.145 86.9893 271.247 88.56C271.348 90.1307 271.601 91.7013 272.007 93.272C272.412 94.792 272.995 96.2613 273.755 97.68C274.565 99.048 275.655 100.264 277.023 101.328C278.391 102.392 280.088 103.228 282.115 103.836C284.141 104.495 286.599 104.824 289.487 104.824C291.412 104.824 292.755 104.621 293.515 104.216C294.275 103.811 294.655 103.405 294.655 103C294.655 102.341 294.452 101.911 294.047 101.708C293.692 101.505 292.957 101.404 291.843 101.404C286.624 101.404 282.824 99.884 280.443 96.844C278.061 93.7533 276.871 89.168 276.871 83.088C278.391 83.0373 280.113 83.012 282.039 83.012C284.015 82.9613 286.143 82.8347 288.423 82.632C288.676 82.632 288.98 82.5053 289.335 82.252C289.74 81.9987 290.145 81.6947 290.551 81.34C290.956 80.9853 291.285 80.656 291.539 80.352C291.843 79.9973 291.995 79.744 291.995 79.592C291.995 78.984 291.513 78.68 290.551 78.68ZM328.533 84.76C328.533 88.256 329.09 91.1947 330.205 93.576C331.37 95.9067 332.789 97.8067 334.461 99.276C336.133 100.695 337.906 101.708 339.781 102.316C341.656 102.924 343.302 103.228 344.721 103.228C345.734 103.228 346.798 103.152 347.913 103C349.028 102.899 350.092 102.747 351.105 102.544C352.118 102.341 353.056 102.113 353.917 101.86C354.778 101.556 355.462 101.252 355.969 100.948C356.83 100.492 357.616 99.96 358.325 99.352C359.085 98.6933 359.744 98.06 360.301 97.452C360.909 96.844 361.365 96.312 361.669 95.856C362.024 95.3493 362.201 94.9947 362.201 94.792C362.201 94.336 362.049 93.956 361.745 93.652C361.492 93.348 361.112 93.196 360.605 93.196C360.149 93.196 359.516 93.5253 358.705 94.184C357.894 94.792 356.906 95.5013 355.741 96.312C354.626 97.072 353.309 97.7813 351.789 98.44C350.32 99.048 348.673 99.352 346.849 99.352C344.873 99.352 343.049 98.82 341.377 97.756C339.756 96.6413 338.362 95.2733 337.197 93.652C336.032 92.0307 335.12 90.308 334.461 88.484C333.853 86.6093 333.549 84.9373 333.549 83.468C333.549 82.708 333.625 81.6693 333.777 80.352C333.98 78.984 334.309 77.5147 334.765 75.944C335.221 74.3733 335.854 72.7773 336.665 71.156C337.476 69.5347 338.514 68.0907 339.781 66.824C341.098 65.5067 342.644 64.4427 344.417 63.632C346.241 62.7707 348.369 62.34 350.801 62.34C351.612 62.34 352.296 62.5173 352.853 62.872C353.41 63.2267 353.866 63.632 354.221 64.088C354.626 64.4933 354.956 64.8733 355.209 65.228C355.513 65.5827 355.817 65.76 356.121 65.76C356.425 65.76 356.805 65.6333 357.261 65.38C357.768 65.076 358.224 64.7213 358.629 64.316C359.085 63.9107 359.465 63.5053 359.769 63.1C360.073 62.644 360.225 62.264 360.225 61.96C360.225 61.2 359.642 60.4147 358.477 59.604C357.312 58.7933 355.665 58.388 353.537 58.388C352.118 58.388 350.497 58.54 348.673 58.844C346.9 59.0973 345.076 59.604 343.201 60.364C341.326 61.0733 339.502 62.0613 337.729 63.328C336.006 64.544 334.461 66.14 333.093 68.116C331.725 70.0413 330.61 72.372 329.749 75.108C328.938 77.844 328.533 81.0613 328.533 84.76ZM381.488 75.564C381.488 74.956 381.488 74.12 381.488 73.056C381.538 71.9413 381.614 70.7507 381.716 69.484C381.817 68.1667 381.944 66.8493 382.096 65.532C382.248 64.164 382.45 62.8973 382.704 61.732C382.754 61.4787 383.008 61.2507 383.464 61.048C383.92 60.8453 384.426 60.668 384.984 60.516C385.592 60.364 386.174 60.2627 386.732 60.212C387.289 60.1107 387.669 60.06 387.872 60.06C388.074 60.06 388.353 60.1107 388.708 60.212C389.113 60.3133 389.518 60.4653 389.924 60.668C390.38 60.82 390.785 60.9973 391.14 61.2C391.494 61.4027 391.722 61.58 391.824 61.732C392.128 62.1373 392.381 62.568 392.584 63.024C392.837 63.48 392.964 64.0627 392.964 64.772C392.964 66.4947 392.685 68.192 392.128 69.864C391.824 70.624 391.444 71.2827 390.988 71.84C390.532 72.3467 390.025 72.8027 389.468 73.208C388.91 73.5627 388.353 73.8667 387.796 74.12C387.289 74.3733 386.808 74.6013 386.352 74.804C385.034 75.412 384.097 75.8427 383.54 76.096C382.982 76.3493 382.577 76.476 382.324 76.476C382.121 76.476 381.918 76.4253 381.716 76.324C381.564 76.2227 381.488 75.9693 381.488 75.564ZM382.324 56.488L375.712 58.236C374.698 58.4893 374.192 58.9453 374.192 59.604C374.192 60.516 374.724 61.276 375.788 61.884C375.99 62.036 376.142 62.6187 376.244 63.632C376.396 64.5947 376.497 65.7347 376.548 67.052C376.649 68.3187 376.7 69.6107 376.7 70.928C376.75 72.2453 376.776 73.3347 376.776 74.196C376.776 76.1213 376.75 78.2493 376.7 80.58C376.649 82.86 376.573 85.0387 376.472 87.116C376.421 89.1933 376.37 91.0173 376.32 92.588C376.269 94.108 376.244 95.0707 376.244 95.476C376.193 96.4387 376.066 97.2493 375.864 97.908C375.712 98.5667 375.534 99.124 375.332 99.58C375.18 99.9853 375.028 100.315 374.876 100.568C374.774 100.821 374.724 101.075 374.724 101.328C374.724 101.632 374.926 101.936 375.332 102.24C375.737 102.493 376.218 102.721 376.776 102.924C377.384 103.076 377.992 103.203 378.6 103.304C379.208 103.456 379.689 103.532 380.044 103.532C380.753 103.532 381.234 103.431 381.488 103.228C381.792 103.025 381.944 102.671 381.944 102.164C381.944 101.759 381.893 101.303 381.792 100.796C381.741 100.289 381.665 99.6307 381.564 98.82C381.513 97.9587 381.437 96.8693 381.336 95.552C381.285 94.2347 381.26 92.5373 381.26 90.46V88.408C381.26 87.192 381.285 85.976 381.336 84.76C381.386 83.4933 381.462 82.3533 381.564 81.34C383.084 81.644 385.009 82.4547 387.34 83.772C389.721 85.0893 392.254 86.6347 394.94 88.408C397.625 90.1813 400.336 92.0813 403.072 94.108C405.858 96.1347 408.417 97.984 410.748 99.656C413.129 101.328 415.181 102.721 416.904 103.836C418.626 104.951 419.766 105.508 420.324 105.508C420.628 105.508 421.058 105.305 421.616 104.9C422.224 104.545 422.806 104.115 423.364 103.608C423.972 103.101 424.478 102.595 424.884 102.088C425.34 101.581 425.568 101.201 425.568 100.948C425.568 100.593 425.466 100.315 425.264 100.112C425.112 99.9093 424.934 99.808 424.732 99.808C422.654 99.808 420.577 99.2253 418.5 98.06C417.689 97.5533 416.65 96.92 415.384 96.16C414.117 95.4 412.724 94.5387 411.204 93.576C409.734 92.6133 408.164 91.6253 406.492 90.612C404.87 89.548 403.249 88.484 401.628 87.42C399.449 85.9507 397.422 84.608 395.548 83.392C393.673 82.176 392.052 81.1373 390.684 80.276C389.316 79.4147 388.429 78.8827 388.024 78.68C387.618 78.4773 387.416 78.3 387.416 78.148C387.416 77.996 387.542 77.8693 387.796 77.768C388.049 77.616 388.784 77.3373 390 76.932C390.912 76.628 391.9 76.2227 392.964 75.716C394.028 75.1587 395.016 74.4493 395.928 73.588C396.89 72.7267 397.676 71.6627 398.284 70.396C398.892 69.0787 399.196 67.508 399.196 65.684C399.196 64.5187 398.841 63.3787 398.132 62.264C397.422 61.0987 396.46 60.06 395.244 59.148C394.028 58.236 392.584 57.5013 390.912 56.944C389.29 56.3867 387.517 56.108 385.592 56.108C384.781 56.108 384.148 56.1587 383.692 56.26C383.236 56.3107 382.78 56.3867 382.324 56.488ZM446.855 78.68H436.595C435.835 78.68 435.177 78.8067 434.619 79.06C434.062 79.2627 433.581 79.5413 433.175 79.896C433.378 76.096 433.809 72.98 434.467 70.548C435.126 68.116 435.911 66.216 436.823 64.848C437.786 63.4293 438.825 62.4667 439.939 61.96C441.105 61.4533 442.295 61.2 443.511 61.2H447.995C448.958 61.2 449.439 60.6427 449.439 59.528C449.439 58.6667 449.059 58.084 448.299 57.78C447.539 57.4253 446.095 57.248 443.967 57.248C441.839 57.248 439.762 57.704 437.735 58.616C435.759 59.4773 434.011 60.972 432.491 63.1C430.971 65.1773 429.73 67.9387 428.767 71.384C427.855 74.7787 427.399 79.0093 427.399 84.076C427.399 85.4947 427.45 86.9893 427.551 88.56C427.653 90.1307 427.906 91.7013 428.311 93.272C428.717 94.792 429.299 96.2613 430.059 97.68C430.87 99.048 431.959 100.264 433.327 101.328C434.695 102.392 436.393 103.228 438.419 103.836C440.446 104.495 442.903 104.824 445.791 104.824C447.717 104.824 449.059 104.621 449.819 104.216C450.579 103.811 450.959 103.405 450.959 103C450.959 102.341 450.757 101.911 450.351 101.708C449.997 101.505 449.262 101.404 448.147 101.404C442.929 101.404 439.129 99.884 436.747 96.844C434.366 93.7533 433.175 89.168 433.175 83.088C434.695 83.0373 436.418 83.012 438.343 83.012C440.319 82.9613 442.447 82.8347 444.727 82.632C444.981 82.632 445.285 82.5053 445.639 82.252C446.045 81.9987 446.45 81.6947 446.855 81.34C447.261 80.9853 447.59 80.656 447.843 80.352C448.147 79.9973 448.299 79.744 448.299 79.592C448.299 78.984 447.818 78.68 446.855 78.68ZM478.277 74.576L490.209 86.736C490.007 86.8373 489.703 86.9387 489.297 87.04C488.892 87.0907 488.284 87.1413 487.473 87.192C486.663 87.2427 485.599 87.2933 484.281 87.344C482.964 87.344 481.317 87.344 479.341 87.344C477.517 87.344 476.099 87.344 475.085 87.344C474.072 87.2933 473.312 87.2427 472.805 87.192C472.299 87.1413 471.969 87.0653 471.817 86.964C471.716 86.812 471.665 86.6347 471.665 86.432C471.665 86.1787 471.767 85.8747 471.969 85.52C472.172 85.1653 472.603 84.4053 473.261 83.24L478.277 74.576ZM473.869 90.84H494.009C499.127 96.008 502.521 99.732 504.193 102.012C504.447 102.316 504.649 102.645 504.801 103C504.953 103.355 505.232 103.532 505.637 103.532H507.917C508.221 103.532 508.576 103.405 508.981 103.152C509.387 102.899 509.792 102.595 510.197 102.24C510.603 101.835 510.932 101.455 511.185 101.1C511.489 100.695 511.641 100.391 511.641 100.188C511.641 99.732 511.54 99.428 511.337 99.276C511.135 99.0733 510.856 98.9213 510.501 98.82C510.197 98.7187 509.817 98.592 509.361 98.44C508.905 98.288 508.424 97.984 507.917 97.528C505.232 95.1467 502.749 92.9173 500.469 90.84C498.24 88.7627 495.884 86.4573 493.401 83.924C490.969 81.34 488.259 78.3507 485.269 74.956C482.28 71.5613 478.733 67.3813 474.629 62.416C474.072 61.7067 473.515 60.9973 472.957 60.288C472.451 59.5787 472.147 59.072 472.045 58.768C471.792 58.16 471.564 57.6787 471.361 57.324C471.209 56.9693 470.981 56.716 470.677 56.564C470.424 56.3613 470.095 56.2347 469.689 56.184C469.284 56.1333 468.727 56.108 468.017 56.108C467.663 56.108 467.207 56.2093 466.649 56.412C466.143 56.6147 465.636 56.868 465.129 57.172C464.623 57.4253 464.167 57.704 463.761 58.008C463.407 58.2613 463.229 58.4893 463.229 58.692C463.229 59.0973 463.483 59.452 463.989 59.756C464.496 60.06 465.104 60.592 465.813 61.352L472.045 67.66C473.768 69.3827 474.629 70.7507 474.629 71.764C474.629 72.22 474.376 73.0307 473.869 74.196C473.363 75.3107 472.704 76.628 471.893 78.148C471.083 79.668 470.145 81.34 469.081 83.164C468.017 84.9373 466.928 86.7107 465.813 88.484C464.699 90.2573 463.584 91.9547 462.469 93.576C461.355 95.1973 460.341 96.5907 459.429 97.756C458.771 98.6173 458.188 99.3013 457.681 99.808C457.175 100.315 456.921 100.796 456.921 101.252C456.921 101.809 457.352 102.24 458.213 102.544C459.075 102.848 460.215 103 461.633 103C462.343 103 462.723 102.747 462.773 102.24C462.824 101.733 462.976 101.252 463.229 100.796L467.029 94.184C467.739 92.9173 468.575 92.056 469.537 91.6C470.5 91.0933 471.944 90.84 473.869 90.84ZM552.925 78.528L548.593 85.444C548.137 84.7853 547.453 83.7973 546.541 82.48C545.629 81.1627 544.616 79.6933 543.501 78.072C542.387 76.4 541.221 74.652 540.005 72.828C538.84 70.9533 537.751 69.18 536.737 67.508C535.724 65.7853 534.863 64.24 534.153 62.872C533.444 61.504 533.013 60.44 532.861 59.68C532.76 59.1227 532.557 58.768 532.253 58.616C532 58.4133 531.443 58.312 530.581 58.312C529.467 58.312 528.529 58.4133 527.769 58.616C527.009 58.768 526.629 59.1227 526.629 59.68C526.629 60.288 526.756 60.7693 527.009 61.124C527.263 61.428 527.389 62.0107 527.389 62.872C527.389 63.632 527.237 64.8987 526.933 66.672C526.68 68.3947 526.325 70.3707 525.869 72.6C525.464 74.8293 524.983 77.1853 524.425 79.668C523.919 82.1507 523.412 84.532 522.905 86.812C522.399 89.0413 521.917 91.0427 521.461 92.816C521.005 94.5387 520.651 95.8053 520.397 96.616C519.941 97.984 519.587 99.048 519.333 99.808C519.08 100.517 518.953 101.075 518.953 101.48C518.953 102.341 519.435 102.899 520.397 103.152C521.411 103.405 522.525 103.532 523.741 103.532C524.248 103.532 524.603 103.431 524.805 103.228C525.059 103.076 525.185 102.899 525.185 102.696C525.185 102.291 525.135 101.885 525.033 101.48C524.932 101.075 524.881 100.669 524.881 100.264C524.881 99.96 525.008 99.0227 525.261 97.452C525.515 95.8813 525.844 94.0067 526.249 91.828C526.655 89.5987 527.085 87.2173 527.541 84.684C528.048 82.1 528.529 79.668 528.985 77.388C529.441 75.0573 529.847 73.0053 530.201 71.232C530.556 69.4587 530.809 68.268 530.961 67.66C531.468 68.42 532.152 69.484 533.013 70.852C533.925 72.1693 534.913 73.6133 535.977 75.184C537.041 76.7547 538.131 78.376 539.245 80.048C540.36 81.72 541.373 83.2907 542.285 84.76C543.248 86.2293 544.059 87.5467 544.717 88.712C545.376 89.8267 545.807 90.612 546.009 91.068C546.415 92.0813 546.769 92.74 547.073 93.044C547.377 93.348 547.884 93.5 548.593 93.5C549.303 93.5 549.835 93.3733 550.189 93.12C550.544 92.816 550.747 92.2333 550.797 91.372C550.848 90.7133 551.025 89.928 551.329 89.016C551.684 88.104 552.393 86.736 553.457 84.912C554.521 83.0373 556.041 80.5293 558.017 77.388C559.993 74.2467 562.653 70.1173 565.997 65C566.352 67.5333 566.808 70.244 567.365 73.132C567.923 75.9693 568.48 78.9587 569.037 82.1C569.645 85.1907 570.228 88.408 570.785 91.752C571.343 95.0453 571.824 98.4147 572.229 101.86C572.331 102.569 572.457 103.025 572.609 103.228C572.812 103.431 573.141 103.532 573.597 103.532C573.749 103.532 574.053 103.456 574.509 103.304C574.965 103.203 575.447 103.076 575.953 102.924C576.511 102.721 576.992 102.493 577.397 102.24C577.803 101.987 578.005 101.708 578.005 101.404C578.005 101.1 577.828 100.163 577.473 98.592C577.119 97.0213 576.663 95.0707 576.105 92.74C575.599 90.3587 575.016 87.7493 574.357 84.912C573.749 82.0747 573.167 79.288 572.609 76.552C572.103 73.7653 571.672 71.156 571.317 68.724C570.963 66.2413 570.785 64.2147 570.785 62.644C570.785 62.2893 570.811 61.884 570.861 61.428C570.963 60.9213 571.013 60.3893 571.013 59.832C571.013 59.68 570.811 59.5027 570.405 59.3C570.051 59.0973 569.595 58.92 569.037 58.768C568.531 58.5653 567.999 58.4133 567.441 58.312C566.935 58.16 566.529 58.084 566.225 58.084C565.871 58.084 565.516 58.2867 565.161 58.692C564.807 59.0467 564.199 59.9333 563.337 61.352C562.527 62.72 561.311 64.772 559.689 67.508C558.068 70.1933 555.813 73.8667 552.925 78.528ZM591.449 99.884C591.449 100.391 591.5 100.872 591.601 101.328C591.702 101.733 591.829 102.164 591.981 102.62C592.082 102.873 592.386 103.127 592.893 103.38C593.45 103.684 594.058 103.963 594.717 104.216C595.426 104.469 596.136 104.672 596.845 104.824C597.554 104.976 598.137 105.052 598.593 105.052C600.417 105.052 601.886 104.52 603.001 103.456C604.166 102.392 605.078 101.201 605.737 99.884C606.446 98.516 606.928 97.1987 607.181 95.932C607.434 94.6653 607.561 93.8293 607.561 93.424C607.561 91.1947 607.13 88.864 606.269 86.432C605.408 83.9493 604.445 81.568 603.381 79.288C602.368 76.9573 601.43 74.804 600.569 72.828C599.708 70.8013 599.277 69.1293 599.277 67.812C599.277 65.684 600.012 63.9107 601.481 62.492C602.95 61.0227 605.357 60.2373 608.701 60.136C610.12 60.0853 611.006 59.908 611.361 59.604C611.766 59.3 611.969 58.6413 611.969 57.628C611.969 57.2227 611.716 56.8933 611.209 56.64C610.702 56.336 610.12 56.108 609.461 55.956C608.802 55.7533 608.118 55.6267 607.409 55.576C606.75 55.4747 606.244 55.424 605.889 55.424C604.268 55.424 602.697 56.032 601.177 57.248C599.708 58.4133 598.39 59.8067 597.225 61.428C596.11 63.0493 595.198 64.6707 594.489 66.292C593.83 67.8627 593.501 69.0787 593.501 69.94C593.501 70.9027 593.729 72.068 594.185 73.436C594.692 74.804 595.3 76.2733 596.009 77.844C596.718 79.364 597.478 80.96 598.289 82.632C599.15 84.2533 599.936 85.8493 600.645 87.42C601.354 88.94 601.937 90.384 602.393 91.752C602.9 93.12 603.153 94.3107 603.153 95.324C603.153 96.4387 602.722 97.4773 601.861 98.44C601.05 99.352 599.961 99.808 598.593 99.808C597.174 99.808 595.984 99.58 595.021 99.124C594.058 98.6173 593.222 98.364 592.513 98.364C592.26 98.364 592.006 98.4907 591.753 98.744C591.55 98.9467 591.449 99.3267 591.449 99.884Z" fill="white"/>
<path d="M136 122H401H600C600 122 534.873 147.519 518.5 147.519C502.127 147.519 522.335 125.279 506.839 125.279C491.343 125.279 435 188.266 435 159.455C435 130.643 393.126 146.594 372.075 131.018C351.024 115.442 357.441 167.653 313 159.455C268.559 151.257 258.5 125.279 225 131.018C191.5 136.757 136 122 136 122Z" fill="white"/>
</svg>
