<svg width="1152" height="1554" viewBox="0 0 1152 1554" fill="none" xmlns="http://www.w3.org/2000/svg">
<rect width="1152" height="1554" fill="#CEBBA8"/>
<mask id="mask0" mask-type="alpha" maskUnits="userSpaceOnUse" x="0" y="0" width="1152" height="1553">
<rect width="1152" height="1553" fill="#A9998A"/>
</mask>
<g mask="url(#mask0)">
<path d="M277.94 81.9268C-55.2453 24.7401 -76.9241 291 -76.9241 291L-171 225.171C-171 225.171 -22.0474 -24.7941 277.94 81.9268C332.515 91.2938 395.447 109.339 468.01 138.653C584.322 185.641 685.145 -24.0714 685.145 -24.0714L1200 -72C1200 -72 895.194 505.414 468.01 187.554C399.046 136.239 335.694 102.473 277.94 81.9268Z" fill="white" fill-opacity="0.08"/>
<path d="M546.509 486.679C473.7 -36.1433 207.171 -4.17268 207.171 -4.17268L234.788 -163.937C234.788 -163.937 534.511 2.44971 546.509 486.679C558.435 572.316 565.164 672.837 564.672 790.822C564.525 826.292 538.958 870.941 503.55 919.798C496.617 1137.61 602.831 1286.51 743.62 1388.03C747.549 1387.86 751.509 1387.69 755.5 1387.5C1670.5 1345 1382.5 1601.5 1382.5 1601.5C1382.5 1601.5 1003.95 1575.75 743.62 1388.03C15.7362 1418.91 350.993 1130.3 503.55 919.798C504.728 882.812 509.167 843.84 517.254 802.775C540.465 684.908 548.819 579.903 546.509 486.679Z" fill="white" fill-opacity="0.08"/>
<path d="M113.298 1087.7C-434.313 1163.24 -391.141 510.975 -391.141 510.975L-560.262 653.24C-560.262 653.24 -395.871 1290.16 113.298 1087.7C202.995 1075.33 308.542 1043.43 432.725 985.937C631.779 893.784 846.5 969 975 1060C1103.5 1151 1537.64 1638.57 1537.64 1638.57C1537.64 1638.57 1220.48 174.794 446.998 866.902C322.128 978.635 211.324 1048.72 113.298 1087.7Z" fill="white" fill-opacity="0.08"/>
<path d="M825.774 1536.77C1326.79 1622.04 1278.27 951.132 1278.27 951.132L1434.66 1099.69C1434.66 1099.69 1293.46 1751.93 825.774 1536.77C743.71 1522.8 646.902 1488.55 532.723 1427.74C349.705 1330.26 266.303 1873.26 266.303 1873.26L-466.94 2083C-466.94 2083 -197.798 583.171 518.031 1305.21C633.594 1421.78 735.735 1495.35 825.774 1536.77Z" fill="white" fill-opacity="0.08"/>
<path d="M699.343 575.755C1140.67 502.657 1169.39 843 1169.39 843L1294 758.855C1294 758.855 1096.7 439.34 699.343 575.755C627.054 587.728 543.696 610.794 447.58 648.264C293.515 708.326 -88 481.5 -88 481.5L-522 379C-522 379 -118.26 1117.07 447.58 710.772C538.929 645.179 622.843 602.018 699.343 575.755Z" fill="white" fill-opacity="0.08"/>
</g>
</svg>
